<svg xmlns="http://www.w3.org/2000/svg" xmlns:xlink="http://www.w3.org/1999/xlink" width="1920" height="459" viewBox="0 0 1920 459">
    <defs>
        <style>
            .cls-1,.cls-5{fill:#fff}.cls-1{stroke:#707070}.cls-2{fill:none}.cls-3{clip-path:url(#clip-path)}.cls-4{fill:#223d57}.cls-6{fill:#879db4}.cls-27,.cls-7{fill:#00143a}.cls-37,.cls-7{opacity:.15}.cls-8{opacity:.56}.cls-14,.cls-9{fill:#6c8196}.cls-10,.cls-12{fill:#708eab}.cls-10,.cls-13{opacity:.62}.cls-11{fill:#859db5}.cls-13{fill:#7f9ab5}.cls-14{opacity:.58}.cls-15{fill:#1f3443}.cls-16{fill:#2b4c60}.cls-17{fill:#00162d}.cls-18,.cls-51,.cls-68{opacity:.02}.cls-18{fill:url(#linear-gradient)}.cls-19{opacity:.05;fill:url(#linear-gradient-2)}.cls-20{fill:#a2d1ff}.cls-21{fill:#5fafff}.cls-22{fill:#4c5966}.cls-23{fill:#90c7ff}.cls-24{fill:#bddeff}.cls-25{fill:#4296e8}.cls-26{fill:#7eb9f2}.cls-28{fill:#a7d3ff}.cls-29{fill:#3d8bd7}.cls-30{fill:#b4cce9}.cls-31{opacity:.76}.cls-32{fill:#357cc2}.cls-33{fill:#77a0c8}.cls-34,.cls-46{opacity:.36}.cls-35{fill:#004396}.cls-36{fill:#598aba}.cls-37{fill:#000c38}.cls-38{fill:#dfeeff}.cls-39,.cls-48,.cls-49,.cls-77{opacity:.23}.cls-40,.cls-46{fill:#004b61}.cls-41{fill:#ffba98}.cls-42{fill:#5da7f0}.cls-43{fill:#99c4ee}.cls-44{fill:#7dbefe}.cls-45{opacity:.35}.cls-47{fill:#5b7d9e}.cls-48{fill:url(#linear-gradient-3)}.cls-49{fill:url(#linear-gradient-4)}.cls-50{fill:#85a1bc}.cls-51{fill:url(#linear-gradient-5)}.cls-52{fill:#aaccea}.cls-53{fill:#2e3740}.cls-54{fill:#4d6b89}.cls-55{fill:#a1bcd7}.cls-56{fill:#c3def9}.cls-57{fill:#84a7ca}.cls-58{fill:#6b96c0}.cls-59{clip-path:url(#clip-path-2)}.cls-60{fill:#bfdfff}.cls-61{fill:#a8d3ff}.cls-62{fill:#004589}.cls-63{fill:#002951;opacity:.17}.cls-64{fill:#aec9e3}.cls-65{clip-path:url(#clip-path-3)}.cls-66{fill:#deedff}.cls-67{clip-path:url(#clip-path-4)}.cls-68{fill:url(#linear-gradient-6)}.cls-69{fill:#0f3e6d}.cls-70{fill:#0d2a4c}.cls-71{fill:#62abf3}.cls-72{fill:#0b4b89}.cls-73{fill:#b2cde7}.cls-74{fill:#154593}.cls-75{fill:#133c77}.cls-76{fill:#63acf4}.cls-77{fill:url(#linear-gradient-7)}
        </style>
        <clipPath id="clip-path">
            <path id="Rectángulo_1280" d="M0 0h1920v459H0z" class="cls-1" data-name="Rectángulo 1280" transform="translate(16144 963)"/>
        </clipPath>
        <linearGradient id="linear-gradient" x1="90.348" x2="91.283" y1="1.176" y2=".22" gradientUnits="objectBoundingBox">
            <stop offset="0" stop-color="#fff"/>
            <stop offset="1" stop-color="#fff" stop-opacity="0"/>
        </linearGradient>
        <linearGradient id="linear-gradient-2" x1="-89.348" x2="-90.283" y1="1.176" y2=".22" xlink:href="#linear-gradient"/>
        <linearGradient id="linear-gradient-3" x2="1" y1=".5" y2=".5" xlink:href="#linear-gradient"/>
        <linearGradient id="linear-gradient-4" x2="1" y1=".5" y2=".5" xlink:href="#linear-gradient"/>
        <linearGradient id="linear-gradient-5" x1="-8.825" x2="-7.89" y1="1.176" y2=".22" xlink:href="#linear-gradient"/>
        <clipPath id="clip-path-2">
            <path id="Rectángulo_1278" d="M0 0h192.81v220.86H0z" class="cls-2" data-name="Rectángulo 1278" transform="translate(1727.09 130.6)"/>
        </clipPath>
        <clipPath id="clip-path-3">
            <path id="Rectángulo_1279" d="M0 0h217.03v301.17H0z" class="cls-2" data-name="Rectángulo 1279" transform="translate(18.97 71.58)"/>
        </clipPath>
        <clipPath id="clip-path-4">
            <path id="Trazado_1968" d="M95.68 301.46a21.41 21.41 0 0 0-20.84 20.39l-3.49 73.9 88.85 2.43-3.13-95z" class="cls-2" data-name="Trazado 1968"/>
        </clipPath>
        <linearGradient id="linear-gradient-6" x1="111.672" x2="112.303" y1="1.119" y2=".18" gradientUnits="objectBoundingBox">
            <stop offset="0" stop-color="#fff"/>
            <stop offset=".23" stop-color="#fff" stop-opacity=".769"/>
            <stop offset="1" stop-color="#fff" stop-opacity="0"/>
        </linearGradient>
        <linearGradient id="linear-gradient-7" x1="-8.911" x2="-7.976" y1=".999" y2=".452" xlink:href="#linear-gradient"/>
    </defs>
    <g id="Grupo_2423" data-name="Grupo 2423" transform="translate(-16144 -723)">
        <g id="Enmascarar_grupo_21" class="cls-3" data-name="Enmascarar grupo 21" transform="translate(0 -240)">
            <g id="Grupo_2422" data-name="Grupo 2422" transform="translate(16144 963)">
                <g id="Ilus_final-06" data-name="Ilus final-06" transform="translate(0 86.18)">
                    <g id="Layer_1" data-name="Layer 1">
                        <g id="Grupo_2387" data-name="Grupo 2387" transform="translate(-5.027 -84)">
                            <path id="Rectángulo_1255" d="M0 0h1924.657v455.9H0z" class="cls-4" data-name="Rectángulo 1255" transform="translate(.71 -2.18)"/>
                        </g>
                        <path id="Rectángulo_1256" d="M0 0h1924.58v63.48H0z" class="cls-5" data-name="Rectángulo 1256" transform="translate(-4 308.42)"/>
                        <path id="Rectángulo_1257" d="M0 0h103.12v3.38H0z" class="cls-6" data-name="Rectángulo 1257" transform="translate(1680.93 283.76)"/>
                        <path id="Trazado_1826" d="M1775.99 287.13l8.07 50.72-4.03.08-13.85-50.8z" class="cls-6" data-name="Trazado 1826"/>
                        <path id="Trazado_1827" d="M1688.44 286.58l-4.7 52.33h3.77l10.15-50.16.53-3.74-9.75 1.57" class="cls-6" data-name="Trazado 1827"/>
                        <path id="Trazado_1828" d="M1697.89 287.13l-.38 2.34-9.3-.35.18-1.99z" class="cls-7" data-name="Trazado 1828"/>
                        <path id="Trazado_1829" d="M1775.99 287.13l.38 2.39-9.61-.26-.58-2.13z" class="cls-7" data-name="Trazado 1829"/>
                        <g id="Grupo_2388" class="cls-8" data-name="Grupo 2388">
                            <path id="Rectángulo_1258" d="M0 0h21.46v21.46H0z" class="cls-9" data-name="Rectángulo 1258" transform="translate(607.63 60.85)"/>
                            <path id="Rectángulo_1259" d="M0 0h21.46v21.46H0z" class="cls-10" data-name="Rectángulo 1259" transform="translate(649.01 152.81)"/>
                            <path id="Rectángulo_1260" d="M0 0h21.46v21.46H0z" class="cls-10" data-name="Rectángulo 1260" transform="translate(607.63 89.21)"/>
                            <path id="Rectángulo_1261" d="M0 0h21.46v21.46H0z" class="cls-11" data-name="Rectángulo 1261" transform="translate(574.68 89.21)"/>
                            <path id="Rectángulo_1262" d="M0 0h21.46v21.46H0z" class="cls-12" data-name="Rectángulo 1262" transform="translate(638.29 89.21)"/>
                            <path id="Rectángulo_1263" d="M0 0h21.46v21.46H0z" class="cls-12" data-name="Rectángulo 1263" transform="rotate(180 298.07 85.985)"/>
                            <path id="Rectángulo_1264" d="M0 0h21.46v21.46H0z" class="cls-12" data-name="Rectángulo 1264" transform="rotate(180 329.87 69.51)"/>
                            <path id="Rectángulo_1265" d="M0 0h21.46v21.46H0z" class="cls-13" data-name="Rectángulo 1265" transform="rotate(180 298.07 69.51)"/>
                            <path id="Rectángulo_1266" d="M0 0h21.46v21.46H0z" class="cls-12" data-name="Rectángulo 1266" transform="translate(710.32 117.56)"/>
                            <path id="Rectángulo_1267" d="M0 0h21.46v21.46H0z" class="cls-12" data-name="Rectángulo 1267" transform="translate(708.02 89.21)"/>
                            <path id="Rectángulo_1268" d="M0 0h21.46v21.46H0z" class="cls-10" data-name="Rectángulo 1268" transform="rotate(180 380.065 69.51)"/>
                            <path id="Rectángulo_1269" d="M0 0h21.46v21.46H0z" class="cls-10" data-name="Rectángulo 1269" transform="rotate(180 348.265 69.51)"/>
                        </g>
                        <g id="Grupo_2389" class="cls-8" data-name="Grupo 2389">
                            <path id="Rectángulo_1270" d="M0 0h21.46v21.46H0z" class="cls-14" data-name="Rectángulo 1270" transform="rotate(180 647.715 54.74)"/>
                            <path id="Rectángulo_1271" d="M0 0h21.46v21.46H0z" class="cls-9" data-name="Rectángulo 1271" transform="translate(1273.97 59.67)"/>
                            <path id="Rectángulo_1272" d="M0 0h21.46v21.46H0z" class="cls-9" data-name="Rectángulo 1272" transform="rotate(180 611.7 40.56)"/>
                            <path id="Rectángulo_1273" d="M0 0h21.46v21.46H0z" class="cls-9" data-name="Rectángulo 1273" transform="rotate(180 612.85 54.74)"/>
                            <path id="Rectángulo_1274" d="M0 0h21.46v21.46H0z" class="cls-14" data-name="Rectángulo 1274" transform="translate(1173.58 59.67)"/>
                            <path id="Rectángulo_1275" d="M0 0h21.46v21.46H0z" class="cls-14" data-name="Rectángulo 1275" transform="translate(1237.19 59.67)"/>
                        </g>
                        <path id="Trazado_1830" d="M784.62 278.33l-22.6 77.56h-2.58l17.34-77.83z" class="cls-6" data-name="Trazado 1830"/>
                        <path id="Trazado_1831" d="M825.47 279.37l17.08 75.34h-3.03l-22.87-75.37z" class="cls-6" data-name="Trazado 1831"/>
                        <path id="Trazado_1832" d="M805.31 278.06l-2.64 77.63h-3.6l-1.59-77.33z" class="cls-6" data-name="Trazado 1832"/>
                        <path id="Trazado_1833" d="M826.24 310.04l-51.6-1.62-.34 5.34 55.81 2.14z" class="cls-6" data-name="Trazado 1833"/>
                        <path id="Trazado_1834" d="M825.47 279.37l.79 3.49h-8.54l-1.07-3.52z" class="cls-7" data-name="Trazado 1834"/>
                        <path id="Trazado_1835" d="M805.27 279.08l-.13 3.78h-7.57l-.09-4.5z" class="cls-7" data-name="Trazado 1835"/>
                        <path id="Trazado_1836" d="M804.25 309.35l-.19 5.55h3.28l1.28-5.42-5.24-.13" class="cls-7" data-name="Trazado 1836"/>
                        <path id="Trazado_1837" d="M798.11 309.15v5.52l-2.49-.09-.72-5.53z" class="cls-7" data-name="Trazado 1837"/>
                        <path id="Trazado_1838" d="M784.62 278.33l-.81 2.77h-7.71l.68-3.04z" class="cls-7" data-name="Trazado 1838"/>
                        <path id="Trazado_1839" d="M843.22 273.35c-7.34-3.59-37-1.66-37-1.66s8.37-103.95-2.45-104.78-35.05-8.54-39.77 7.09 1.58 104 7.84 104c14.28 0 57.78 3.11 70.92 0 3.39-.8.46-4.65.46-4.65z" class="cls-15" data-name="Trazado 1839"/>
                        <path id="Trazado_1840" d="M773.33 175.8a3.172 3.172 0 0 0-.61.83 11.93 11.93 0 0 0-.61 1.09c-.23.43-.47.95-.72 1.54a36.619 36.619 0 0 0-2.56 10.51 132.791 132.791 0 0 0-.43 16c.1 6 .46 12.6 1 19.51s1.21 13.47 1.84 19.43 1.22 11.35 2.06 15.83A66.1 66.1 0 0 0 776 271a15 15 0 0 0 1.59 3.62 25.2 25.2 0 0 0-1-3.79 89.305 89.305 0 0 1-2.21-10.45c-.7-4.46-1.19-9.81-1.73-15.79s-1.17-12.52-1.71-19.41-.94-13.45-1.12-19.43a151.552 151.552 0 0 1 .1-15.84 41.463 41.463 0 0 1 2-10.4c.85-2.41 1.53-3.65 1.41-3.71z" class="cls-16" data-name="Trazado 1840"/>
                        <path id="Trazado_1841" d="M800.92 127c-4-.38-7.44 2.76-9.4 6.22s-3 7.43-5.21 10.72c-2.11 3.12-5.16 5.44-7.79 8.13-5 5.14-8.58 12.08-8.23 19.25s5.3 14.29 12.33 15.76 14.51-3.09 17.87-9.51 3.26-14.18 1.48-21.21c-1.31-5.14-3.46-10.09-4-15.37s.85-11.22 5.22-14.21" class="cls-17" data-name="Trazado 1841"/>
                        <path id="Trazado_1842" d="M955.37 185.97l-141.495-57.789 5.755 24.739.66 33.05 54.37 40.71 30.51-1.22z" class="cls-18" data-name="Trazado 1842"/>
                        <path id="Trazado_2006" d="M819.63 193.967L934.9 149.81l4.27 1.46 3.2 46.915-23.428 45.875-37.542-1.5z" class="cls-19" data-name="Trazado 2006" transform="translate(145.74 -6.69)"/>
                        <path id="Trazado_1843" d="M817.82 128.45c3.82 2 5.35 6.63 5.74 10.9s0 8.72 1.56 12.73c2.53 6.62 9.71 10.66 12 17.37a14.41 14.41 0 0 1-3.83 14.75 15.87 15.87 0 0 1-15 3.46c-6.2-1.78-10.89-7.17-13.27-13.17s-2.76-12.59-2.74-19.05c0-6 .43-12.19 3.1-17.56s8.14-9.74 14.14-9.45" class="cls-17" data-name="Trazado 1843"/>
                        <path id="Trazado_1844" d="M881.26 214.87l2.7-1.44a27.554 27.554 0 0 0 4.57-2.34 8.43 8.43 0 0 0 2-1.67 12.568 12.568 0 0 0 1.85-2.59c.38-.9 1.61-1 1.8-.16s-.79 3.3-3 5.53 2.51 1.56 4.25 1.34 7.14-.61 7.58-.13c.65.7-.06 1.59-1.8 1.76s-7 1.06-6.89 2 8.94-.3 8.94-.3 1.88-.56 2 .48c.21 1.88-9.25 2.47-10.15 2.5a.5.5 0 0 0 .09 1c.69-.07 8.84-1.41 9.07.5.18 1.47-7.78.56-9.4 1.77s6.16.06 6.28 1.48c0 .52 0 .93-4.51.94s-16.94-2-16.94-2l1.78-8.73" class="cls-20" data-name="Trazado 1844"/>
                        <path id="Trazado_1845" d="M822.42 176.16s23.22 31.19 28.54 32.58 35.76 3.26 35.76 3.26l2.71 13.18s-39 2.06-47.53-4.27c-13.48-10-27.65-32.85-27.65-32.85-.35-7.59 2.53-11.36 8.17-11.9z" class="cls-21" data-name="Trazado 1845"/>
                        <path id="Trazado_1856" d="M885.53 338.91l-1.47 11.57s13.7 4.32 10.43 5.09-25.68-2.46-25.68-2.46 1.51-14.17 1.35-14.17z" class="cls-22" data-name="Trazado 1856"/>
                        <path id="Trazado_1857" d="M852.35 328.05l-7.15 9.21s9.59 10.69 6.39 9.69-20.86-15.18-20.86-15.18 8.51-11.43 8.37-11.52z" class="cls-22" data-name="Trazado 1857"/>
                        <path id="Trazado_1858" d="M862.85 259.12l-30.23 63.7 19.21 10.81 31.4-57.05-1.98-18.78z" class="cls-23" data-name="Trazado 1858"/>
                        <path id="Trazado_1859" d="M791.39 234.47S778.45 262.11 804 271.6l13.56-29.6z" class="cls-24" data-name="Trazado 1859"/>
                        <path id="Trazado_1860" d="M809.12 241.81s73.61-20.22 81.88-3.25-1.57 105.37-1.57 105.37l-23-2.42s3.83-77.62 0-80.34-56.91 10.67-62.43 10.43c-13.6-.6-23.19-25.88 5.12-29.79z" class="cls-24" data-name="Trazado 1860"/>
                        <path id="Trazado_1861" d="M807.56 167.83a18.38 18.38 0 0 1 18 17.52c.37 8 .71 17.88.75 27.28 0 5.11 8.65 26.53 8.65 26.53l-6.53 1.09a71.07 71.07 0 0 1-30.33-1.5l-7.43-2s-4.28-22.35-6.71-43.32c-2-17.53 1.32-24.34 12-25.84z" class="cls-25" data-name="Trazado 1861"/>
                        <path id="Trazado_1862" d="M812.64 169.08c-.33-1.7.22-8.86.22-8.86s6.51-.82 6.77-7.3-.44-21.4-.44-21.4l-12-5.57-12.87 10.18-1.19 7.14 3 8.48 1.31 16.25z" class="cls-20" data-name="Trazado 1862"/>
                        <path id="Trazado_1863" d="M812.86 160.22a16.16 16.16 0 0 1-8.64-2.72s2 4.72 8.53 4.31z" class="cls-26" data-name="Trazado 1863"/>
                        <path id="Trazado_1864" d="M819.69 131.49c-2.33 1.28-5.68 2.46-8.27 1.87-1.57-.35-2.93-1.37-4.51-1.67-3-.55-5.91 1.74-7.12 4.53s-.79 4.4-.67 7.44c-2.06-2-4-.28-4.37 1.24-.53 1.89 1 5.53 4.2 4.83-.75 2.06-.31 16.45-2 17.87 0 0-5.33-19.64-5.33-26.57 0-6.38 1.16-16.66 16.3-16.46 11.32.14 11.77 6.92 11.77 6.92z" class="cls-27" data-name="Trazado 1864"/>
                        <path id="Trazado_1865" d="M827.13 235.23l3-.18a28 28 0 0 0 5.13-.2 8.561 8.561 0 0 0 2.48-.69 12.546 12.546 0 0 0 2.77-1.58c.72-.66 1.87-.21 1.7.61s-2.1 2.67-5.09 3.74 1.62 2.46 3.29 3 6.75 2.44 6.95 3.06c.29.91-.73 1.42-2.38.85s-6.77-2-7.08-1.12 8.24 3.48 8.24 3.48 1.95.28 1.62 1.27c-.6 1.8-9.43-1.64-10.26-2a.48.48 0 1 0-.33.9c.66.23 8.62 2.44 8 4.27-.46 1.41-7.3-2.76-9.28-2.35s5.57 2.65 5.08 4c-.18.49-.39.84-4.49-1S822 242.35 822 242.35l5.28-7.18" class="cls-20" data-name="Trazado 1865"/>
                        <path id="Trazado_1866" d="M819.27 131.44a16.35 16.35 0 0 1-10.52 5.8c-3.9.48-8.13-.41-11.6 1.42a9 9 0 0 1 4-8.42 13.62 13.62 0 0 1 9.38-2 29.09 29.09 0 0 1 9.25 3.13" class="cls-27" data-name="Trazado 1866"/>
                        <path id="Trazado_1867" d="M797.48 249.54a21 21 0 0 0 2.84-1.44 63.006 63.006 0 0 1 7-3.11 63.659 63.659 0 0 1 7.3-2.18 21.242 21.242 0 0 0 3.09-.76 12.209 12.209 0 0 0-3.18.31 43.221 43.221 0 0 0-7.44 2 42.389 42.389 0 0 0-7 3.32 12.22 12.22 0 0 0-2.61 1.86z" class="cls-28" data-name="Trazado 1867"/>
                        <path id="Trazado_1868" d="M794.18 245.39c.05.19 2.2-.35 4.9-.25s4.81.77 4.87.58-2-1.14-4.85-1.23-4.99.75-4.92.9z" class="cls-28" data-name="Trazado 1868"/>
                        <path id="Trazado_1869" d="M834.93 324.12a2.606 2.606 0 0 0 .35-.59l.9-1.77 1.44-2.77c.57-1.09 1.22-2.31 1.94-3.67 2.92-5.43 6.94-12.89 11.39-21.13s8.44-15.75 11.22-21.23l1.86-3.72 1.34-2.83c.36-.78.61-1.4.79-1.82a2.86 2.86 0 0 0 .23-.65 2.909 2.909 0 0 0-.35.6c-.22.42-.52 1-.9 1.76l-1.44 2.78-1.94 3.66c-2.92 5.43-6.94 12.89-11.39 21.14s-8.44 15.75-11.22 21.23l-1.86 3.71-1.29 2.83c-.36.79-.61 1.4-.79 1.82a2.863 2.863 0 0 0-.28.65z" class="cls-28" data-name="Trazado 1869"/>
                        <path id="Trazado_1870" d="M817.84 241.23s-17.32-4.94-23.66-12.7-7.18-13.17-7.18-13.17l-2.35-39.2z" class="cls-29" data-name="Trazado 1870"/>
                        <path id="Trazado_1871" d="M824.09 178.27c.22.39 1.36 11.07 3.21 12.95s2.74 5.26-1.24 8.34" class="cls-25" data-name="Trazado 1871"/>
                        <path id="Trazado_1872" d="M955.37 185.97l-14.69 42.92h-66.51l.49-2.21 26.9-.83 12.39-39.91z" class="cls-30" data-name="Trazado 1872"/>
                        <path id="Trazado_1873" d="M794.9 267.84a2 2 0 0 0 .42-.07l1.22-.28 4.68-1.1c4.06-1 9.95-2.34 17.24-3.93s16-3.37 25.71-5.14c4.85-.89 10-1.78 15.25-2.64l4-.64a15.228 15.228 0 0 1 4-.24 5.4 5.4 0 0 1 3.49 1.68 8.7 8.7 0 0 1 1.87 3.59 25.994 25.994 0 0 1 .77 4.12c.18 1.4.35 2.78.52 4.16s.27 2.74.4 4.1.21 2.71.32 4c.35 5.36.53 10.53.52 15.46 0 9.87-.48 18.75-1 26.19s-1 13.47-1.39 17.63c-.17 2.07-.3 3.68-.39 4.79 0 .54-.06 1-.08 1.25a1.9 1.9 0 0 0 0 .42 1.614 1.614 0 0 0 .07-.42c0-.29.09-.7.15-1.24.12-1.1.29-2.71.51-4.78.43-4.15 1-10.17 1.6-17.62s1.1-16.33 1.13-26.22c0-4.94-.14-10.13-.49-15.5-.1-1.34-.17-2.7-.3-4.06s-.27-2.73-.4-4.12-.35-2.76-.52-4.16a26.115 26.115 0 0 0-.8-4.22 9.321 9.321 0 0 0-2-3.86 6.36 6.36 0 0 0-1.78-1.31 6.551 6.551 0 0 0-2.11-.57 16.621 16.621 0 0 0-4.19.25l-4 .65c-5.3.87-10.41 1.77-15.26 2.68-9.71 1.8-18.41 3.64-25.7 5.28s-13.15 3.09-17.2 4.13c-2 .51-3.59.94-4.65 1.23l-1.21.33a2 2 0 0 0-.4.18z" class="cls-28" data-name="Trazado 1873"/>
                        <path id="Trazado_1874" d="M812.64 169.08s6.07 11.53 2.62 11.53-18.3-13-18.3-13z" class="cls-20" data-name="Trazado 1874"/>
                        <path id="Trazado_1875" d="M797.74 169.87s2.75 38.78 6.49 42.82 28.39 22 28.39 22l-4.82 12.57S793.88 228 790.06 218c-4.61-12-5.44-30.73-5.58-38.72a10.9 10.9 0 0 1 4-8.78c2.79-2.21 5.89-2.36 9.26-.63z" class="cls-21" data-name="Trazado 1875"/>
                        <g id="Grupo_2409" class="cls-31" data-name="Grupo 2409">
                            <path id="Trazado_1885" d="M806.14 201.5c0 .1.55.53 1.7.72a6.38 6.38 0 0 0 7.12-4.48c.32-1.12.19-1.85.08-1.85a12.135 12.135 0 0 0-.69 1.63 6.79 6.79 0 0 1-6.45 4.06c-1.05-.01-1.71-.21-1.76-.08z" class="cls-25" data-name="Trazado 1885"/>
                        </g>
                        <path id="Trazado_1886" d="M886.72 211.96l2.71 13.18-4.79.25-2.84-14.17z" class="cls-32" data-name="Trazado 1886"/>
                        <path id="Trazado_1888" d="M778.88 274.45c.08.44 6.83-.62 15.19-1.29s15.19-.75 15.2-1.19-6.86-1-15.33-.33-15.15 2.43-15.06 2.81z" class="cls-16" data-name="Trazado 1888"/>
                        <path id="Trazado_1889" d="M781.44 206.26c.07.06.32 0 .43-.45a1.55 1.55 0 0 0-.7-1.5 1.79 1.79 0 0 0-1.23-.34 2 2 0 0 0-.72.24 2.389 2.389 0 0 0-.58.48 3 3 0 0 0-.47 2.93 3.07 3.07 0 0 0 2.17 2 2.31 2.31 0 0 0 .74 0 2.12 2.12 0 0 0 .71-.23 2 2 0 0 0 .82-.9 1.62 1.62 0 0 0 0-1.63c-.25-.33-.49-.34-.54-.27s0 .26 0 .5a1.389 1.389 0 0 1-.34.85 1.281 1.281 0 0 1-.46.32.671.671 0 0 1-.25 0 1.18 1.18 0 0 1-.31-.05 1.89 1.89 0 0 1-1.07-1.15 1.86 1.86 0 0 1 .14-1.55.68.68 0 0 1 .88-.32 1.13 1.13 0 0 1 .66.57c.05.24.03.44.12.5z" class="cls-16" data-name="Trazado 1889"/>
                        <path id="Trazado_1890" d="M1045.92 324.72l7 9.08s-9.45 10.53-6.29 9.54 20.55-15 20.55-15-8.39-11.26-8.25-11.34z" class="cls-22" data-name="Trazado 1890"/>
                        <path id="Trazado_1891" d="M1035.58 256.81l29.78 62.76-18.92 10.65-30.94-56.21 1.95-18.5z" class="cls-33" data-name="Trazado 1891"/>
                        <g id="Grupo_2410" class="cls-34" data-name="Grupo 2410">
                            <path id="Trazado_1892" d="M1063.09 320.85a2.61 2.61 0 0 1-.35-.59l-.88-1.73-1.42-2.74c-.56-1.07-1.2-2.27-1.91-3.61l-11.22-20.82c-4.39-8.13-8.32-15.52-11.06-20.92-.68-1.35-1.29-2.58-1.83-3.66s-1-2-1.32-2.79-.61-1.38-.78-1.79a2.719 2.719 0 0 1-.23-.64 2.6 2.6 0 0 1 .35.59l.88 1.74 1.42 2.73c.56 1.07 1.2 2.28 1.91 3.61l11.22 20.83c4.39 8.13 8.32 15.51 11.06 20.91l1.83 3.66c.51 1.08 1 2 1.32 2.79s.61 1.38.78 1.79a2.719 2.719 0 0 1 .23.64z" class="cls-35" data-name="Trazado 1892"/>
                        </g>
                        <path id="Trazado_1893" d="M1030.73 301.69l1.36 2.46 5.44-43.24-1.34-2.84-4.97-.15-1.94 20.42z" class="cls-36" data-name="Trazado 1893"/>
                        <path id="Trazado_1894" d="M1112.66 276.33l22.26 76.42h2.54l-17.08-76.68z" class="cls-6" data-name="Trazado 1894"/>
                        <path id="Trazado_1895" d="M1072.44 276.71l-16.95 74.75h3.01l22.68-74.78z" class="cls-6" data-name="Trazado 1895"/>
                        <path id="Trazado_1896" d="M1092.27 274.98l2.6 76.48h3.55l1.56-76.18z" class="cls-6" data-name="Trazado 1896"/>
                        <path id="Trazado_1897" d="M1071.65 306.97l50.84-1.59.34 5.26-54.99 2.11z" class="cls-6" data-name="Trazado 1897"/>
                        <path id="Trazado_1898" d="M1072.41 276.68l-.78 3.87h8.41l1.05-3.87z" class="cls-37" data-name="Trazado 1898"/>
                        <path id="Trazado_1899" d="M1092.31 276.83l.12 3.72h7.46l.09-4.42z" class="cls-37" data-name="Trazado 1899"/>
                        <path id="Trazado_1900" d="M1093.32 306.02l.19 5.47h-3.24l-1.26-5.34 5.17-.13" class="cls-37" data-name="Trazado 1900"/>
                        <path id="Trazado_1901" d="M1099.87 306.1v5.44l2.46-.09.71-5.45z" class="cls-37" data-name="Trazado 1901"/>
                        <path id="Trazado_1902" d="M1112.66 275.24l.79 2.73h7.6l-.67-2.99z" class="cls-37" data-name="Trazado 1902"/>
                        <path id="Trazado_1903" d="M1054.92 270.83c7.23-3.54 36.45-1.63 36.45-1.63s-8.25-102.42 2.41-103.24 34.83-8.5 39.19 7c4.58 16.27-1.61 103.29-7.72 102.44-13.94-1.92-56.93 3.06-69.88 0-3.37-.78-.45-4.57-.45-4.57z" class="cls-38" data-name="Trazado 1903"/>
                        <g id="Grupo_2411" class="cls-39" data-name="Grupo 2411">
                            <path id="Trazado_1904" d="M1123.78 174.72a4.834 4.834 0 0 1 .6.82c.18.27.37.64.6 1.07s.46.94.71 1.51a36 36 0 0 1 2.52 10.36 129.029 129.029 0 0 1 .43 15.74c-.1 5.92-.46 12.42-1 19.23s-1.19 13.27-1.81 19.14-1.2 11.18-2 15.6a66.517 66.517 0 0 1-2.67 10.29 14.741 14.741 0 0 1-1.57 3.56 26.892 26.892 0 0 1 1-3.74 86.879 86.879 0 0 0 2.18-10.29c.68-4.39 1.17-9.67 1.7-15.55s1.15-12.34 1.69-19.13.92-13.25 1.1-19.14a149.9 149.9 0 0 0-.1-15.61 40.636 40.636 0 0 0-2-10.25c-.83-2.33-1.49-3.55-1.38-3.61z" class="cls-40" data-name="Trazado 1904"/>
                        </g>
                        <path id="Trazado_1905" d="M1015.55 211.54l-2.66-1.42a28.087 28.087 0 0 1-4.5-2.31 8.4 8.4 0 0 1-1.93-1.64 12.678 12.678 0 0 1-1.83-2.56c-.37-.88-1.58-1-1.77-.15s.78 3.25 3 5.44-2.47 1.54-4.19 1.33-7-.61-7.47-.14c-.64.7.06 1.58 1.77 1.75s6.87 1 6.8 1.93-8.81-.31-8.81-.31-1.86-.55-2 .48c-.21 1.85 9.11 2.43 10 2.46a.472.472 0 1 1-.08.94c-.69-.06-8.71-1.38-8.94.51-.18 1.44 7.67.54 9.27 1.73s-6.08.07-6.19 1.46c0 .52 0 .92 4.44.93s16.69-2 16.69-2l-1.76-8.6" class="cls-41" data-name="Trazado 1905"/>
                        <path id="Trazado_1906" d="M1075.41 175.08s-22.87 30.72-28.12 32.09-35.23 3.18-35.23 3.18l-2.67 13s38.38 2 46.84-4.21c13.28-9.81 27.23-32.36 27.23-32.36.35-7.46-2.46-11.17-8.05-11.7z" class="cls-42" data-name="Trazado 1906"/>
                        <path id="Trazado_1907" d="M1013.23 336l1.45 11.4s-13.49 4.25-10.27 5 25.3-2.42 25.3-2.42-1.49-14-1.33-14z" class="cls-22" data-name="Trazado 1907"/>
                        <path id="Trazado_1908" d="M1106 232.53s12.74 27.23-12.38 36.57L1080.2 240z" class="cls-43" data-name="Trazado 1908"/>
                        <path id="Trazado_1909" d="M1088.52 239.75s-72.53-19.92-80.67-3.19 1.54 103.81 1.54 103.81l22.7-2.39s-3.77-76.47 0-79.16 56 10.52 61.52 10.28c13.39-.58 22.8-25.49-5.09-29.35z" class="cls-43" data-name="Trazado 1909"/>
                        <path id="Trazado_1910" d="M1090.06 166.87a18.1 18.1 0 0 0-17.71 17.26c-.36 7.91.42 18.77-1.74 28.3-1.12 4.91-7.52 24.71-7.52 24.71l6.43 1.08a70.15 70.15 0 0 0 29.89-1.48l7.31-2s4.22-22 6.61-42.69c2-17.27-1.29-24-11.77-25.45z" class="cls-42" data-name="Trazado 1910"/>
                        <path id="Trazado_1911" d="M1085.05 168.1c.32-1.67-.21-8.73-.21-8.73s-6.42-.81-6.68-7.2.44-21.08.44-21.08l11.83-5.48 12.68 10 1.17 7-2.94 8.36L1100 167z" class="cls-20" data-name="Trazado 1911"/>
                        <path id="Trazado_1912" d="M1084.84 159.37a15.86 15.86 0 0 0 8.5-2.68s-2 4.64-8.4 4.25z" class="cls-44" data-name="Trazado 1912"/>
                        <path id="Trazado_1913" d="M1070.78 233.27l-3-.17a28 28 0 0 1-5.06-.21 8.071 8.071 0 0 1-2.44-.68 12.411 12.411 0 0 1-2.73-1.55c-.71-.65-1.84-.2-1.67.6s2.07 2.63 5 3.68-1.61 2.43-3.25 3-6.65 2.41-6.84 3c-.29.89.71 1.4 2.34.83s6.66-1.93 7-1.09-8.12 3.42-8.12 3.42-1.91.27-1.59 1.25c.59 1.77 9.29-1.61 10.11-2a.473.473 0 0 1 .32.89c-.65.23-8.49 2.4-7.91 4.2.45 1.39 7.19-2.72 9.14-2.31s-5.48 2.61-5 3.92c.18.49.39.83 4.42-1s14.33-8.78 14.33-8.78l-5.2-7.07" class="cls-20" data-name="Trazado 1913"/>
                        <g id="Grupo_2412" class="cls-45" data-name="Grupo 2412">
                            <path id="Trazado_1914" d="M1100 247.37a21.408 21.408 0 0 1-2.79-1.42 58.236 58.236 0 0 0-14-5.21 19.149 19.149 0 0 1-3-.75 11.849 11.849 0 0 1 3.13.31 42.171 42.171 0 0 1 14.18 5.26 11.31 11.31 0 0 1 2.48 1.81z" class="cls-35" data-name="Trazado 1914"/>
                        </g>
                        <g id="Grupo_2413" class="cls-45" data-name="Grupo 2413">
                            <path id="Trazado_1915" d="M1103.24 243.28c0 .19-2.17-.35-4.83-.24s-4.74.75-4.8.57 2-1.13 4.78-1.21 4.91.73 4.85.88z" class="cls-35" data-name="Trazado 1915"/>
                        </g>
                        <path id="Trazado_1916" d="M1079.93 239.18s14.25-4.07 23.31-12.51c7.23-6.73 7.1-13 7.1-13l3.41-26.16z" class="cls-46" data-name="Trazado 1916"/>
                        <g id="Grupo_2414" class="cls-34" data-name="Grupo 2414">
                            <path id="Trazado_1917" d="M1102.53 265.4a2 2 0 0 1-.42-.07l-1.2-.27-4.61-1.06c-4-1-9.8-2.31-17-3.87s-15.77-3.32-25.33-5.07c-4.79-.87-9.81-1.75-15-2.59l-4-.64a15.551 15.551 0 0 0-4-.24 5.329 5.329 0 0 0-3.44 1.66 8.629 8.629 0 0 0-1.84 3.54 25.27 25.27 0 0 0-.77 4.06c-.17 1.38-.34 2.74-.51 4.09s-.26 2.71-.39 4-.21 2.66-.31 4c-.35 5.27-.52 10.37-.51 15.23 0 9.72.47 18.47 1 25.8s1 13.27 1.37 17.37c.16 2 .29 3.63.38 4.72 0 .53.07.94.08 1.23a1.9 1.9 0 0 1 0 .42 2.777 2.777 0 0 1-.07-.41 7.052 7.052 0 0 0-.15-1.23c-.11-1.09-.28-2.67-.5-4.71-.42-4.09-1-10-1.57-17.35s-1.09-16.1-1.11-25.84c0-4.87.13-10 .47-15.27.11-1.32.17-2.66.31-4s.26-2.69.39-4.06l.51-4.1a26.459 26.459 0 0 1 .78-4.16 9.231 9.231 0 0 1 2-3.8 6.15 6.15 0 0 1 1.75-1.29 6.622 6.622 0 0 1 2.08-.56 15.71 15.71 0 0 1 4.13.25l4 .64c5.22.85 10.25 1.74 15 2.63 9.57 1.78 18.15 3.59 25.32 5.21s13 3 16.95 4.07c2 .5 3.54.92 4.58 1.2l1.19.33a2 2 0 0 1 .44.14z" class="cls-35" data-name="Trazado 1917"/>
                        </g>
                        <g id="Grupo_2415" class="cls-34" data-name="Grupo 2415">
                            <path id="Trazado_1918" d="M1032.3 258.63c-.12.13-1.26-.71-2.54-1.88l-.47-.43.45-.45c1 1.07 1.59 1.95 1.48 2.05s-.94-.59-1.94-1.62l.44-.45.47.42c1.29 1.18 2.23 2.23 2.11 2.36z" class="cls-35" data-name="Trazado 1918"/>
                        </g>
                        <g id="Grupo_2416" class="cls-34" data-name="Grupo 2416">
                            <path id="Trazado_1919" d="M1032.67 258.64a6.932 6.932 0 0 1-.89-2.72c-.32-1.54-.45-2.83-.27-2.86s.57 1.18.89 2.73.45 2.82.27 2.85z" class="cls-35" data-name="Trazado 1919"/>
                        </g>
                        <path id="Trazado_1920" d="M1099.73 168.87s-2.71 38.21-6.4 42.19-28 21.65-28 21.65l4.75 12.38s33.43-19 37.19-28.77c4.54-11.86 5.36-30.28 5.49-38.16a10.75 10.75 0 0 0-3.91-8.64c-2.74-2.2-5.8-2.34-9.12-.65z" class="cls-42" data-name="Trazado 1920"/>
                        <g id="Grupo_2417" class="cls-39" data-name="Grupo 2417">
                            <path id="Trazado_1921" d="M1118.31 271.92c-.08.42-6.72-.62-15-1.28s-15-.74-15-1.17 6.76-1 15.1-.32 14.99 2.38 14.9 2.77z" class="cls-40" data-name="Trazado 1921"/>
                        </g>
                        <g id="Grupo_2418" class="cls-39" data-name="Grupo 2418">
                            <path id="Trazado_1922" d="M1115.79 204.73c-.07.05-.31 0-.42-.44a1.51 1.51 0 0 1 .68-1.48 1.84 1.84 0 0 1 1.22-.34 1.931 1.931 0 0 1 .7.24 2 2 0 0 1 .57.47 3.11 3.11 0 0 1-1.67 4.89 2.24 2.24 0 0 1-.73 0 1.911 1.911 0 0 1-.7-.22 2 2 0 0 1-.8-.89 1.59 1.59 0 0 1 0-1.6c.25-.32.49-.34.54-.26s0 .25 0 .48a1.28 1.28 0 0 0 .78 1.16.67.67 0 0 0 .25 0 .8.8 0 0 0 .3-.06 1.87 1.87 0 0 0 .92-2.65.67.67 0 0 0-.87-.32 1.11 1.11 0 0 0-.64.57c-.06.2-.04.39-.13.45z" class="cls-40" data-name="Trazado 1922"/>
                        </g>
                        <path id="Trazado_1923" d="M1098.42 181a8.076 8.076 0 0 1 .15 2.47c0 1.59 0 3.89-.25 6.73a62.874 62.874 0 0 1-1.41 9.94 35.886 35.886 0 0 1-4.69 11.44 38.639 38.639 0 0 1-8.53 8.93c-3 2.34-5.8 4.2-8.13 5.81-4.7 3.16-7.38 5.41-7.51 5.26s.53-.72 1.71-1.8 3-2.53 5.24-4.23 5-3.66 7.92-6a40 40 0 0 0 8.18-8.71 36.261 36.261 0 0 0 4.6-11 72.736 72.736 0 0 0 1.68-9.73c.62-5.65.83-9.11 1.04-9.11z" class="cls-47" data-name="Trazado 1923"/>
                        <path id="Trazado_1924" d="M1090.69 169.04l.5-5.67 9.27-1.71 2.78 6.06z" class="cls-47" data-name="Trazado 1924"/>
                        <path id="Trazado_1925" d="M1084.84 162.68l3.65.69v5.67l-4.63-.94 1.13-6.44" class="cls-47" data-name="Trazado 1925"/>
                        <path id="Trazado_1926" d="M1075.88 225.75a2.74 2.74 0 0 1 .15-.59l.53-1.66c.47-1.44 1.14-3.52 2-6.1 1.62-5.15 3.7-12.32 5.63-20.33s3.33-15.35 4.23-20.68c.45-2.66.8-4.82 1-6.31.11-.7.21-1.27.28-1.72a2.13 2.13 0 0 1 .14-.59 4.474 4.474 0 0 1 0 .6c0 .46-.11 1-.19 1.74-.17 1.5-.46 3.67-.87 6.34-.81 5.35-2.15 12.71-4.08 20.74s-4.08 15.2-5.79 20.33c-.85 2.56-1.58 4.63-2.11 6l-.62 1.62a3 3 0 0 1-.3.61z" class="cls-47" data-name="Trazado 1926"/>
                        <path id="Trazado_1927" d="M1071.54 207a14.364 14.364 0 0 1 .4-2.59c.3-1.58.67-3.78 1-6.22s.47-4.66.58-6.27a14.914 14.914 0 0 1 .23-2.612 11.329 11.329 0 0 1 .13 2.622 56.22 56.22 0 0 1-1.55 12.56 11.718 11.718 0 0 1-.79 2.51z" class="cls-47" data-name="Trazado 1927"/>
                        <path id="Trazado_1928" d="M1009.39 223.33l2.67-12.99 5.12-.32-2.84 13.63z" class="cls-48" data-name="Trazado 1928"/>
                        <path id="Trazado_1929" d="M1070.11 245.09l-5.23-13.54 4.88-1.81 4.41 12.97z" class="cls-49" data-name="Trazado 1929"/>
                        <path id="Rectángulo_1276" d="M0 0h305.57v7.65H0z" class="cls-50" data-name="Rectángulo 1276" transform="translate(854.99 229.43)"/>
                        <path id="Trazado_1930" d="M870.89 237.11L852.62 352l9.14.17 31.35-115.06z" class="cls-50" data-name="Trazado 1930"/>
                        <path id="Trazado_1931" d="M1143.55 235.82l10.65 118.54h-8.54l-22.98-113.62-1.2-8.46 22.07 3.54" class="cls-50" data-name="Trazado 1931"/>
                        <path id="Trazado_1932" d="M1122.16 237.08l.85 5.29 21.06-.78-.4-4.51z" class="cls-37" data-name="Trazado 1932"/>
                        <path id="Trazado_1933" d="M870.89 237.11l-.86 5.41 21.77-.6 1.31-4.81z" class="cls-37" data-name="Trazado 1933"/>
                        <path id="Trazado_1934" d="M966 186.32l87.88-34.19 45.85 1.62-.64 32.57-53.58 40.11-30.06-1.2z" class="cls-51" data-name="Trazado 1934"/>
                        <path id="Trazado_1935" d="M965.77 186.91l14.56 42.53h65.89l-.49-2.19-26.64-.83-12.28-39.53z" class="cls-52" data-name="Trazado 1935"/>
                        <path id="Trazado_1937" d="M1097.87 145.26a1.12 1.12 0 0 0 1.12.75 2.31 2.31 0 0 0 1.32-.54 3.87 3.87 0 0 0 1.56-2.53 2.651 2.651 0 0 0-1.19-2.61 2 2 0 0 0-2.69.59z" class="cls-20" data-name="Trazado 1937"/>
                        <path id="Trazado_1938" d="M1103.53 147.23a45.859 45.859 0 0 0-2.44 8.35c-.84 1.54-1.12-3.33-1.12-3.33s-.71-4.68-.06-6.5c0 0 2.85.92 3.49-4.19a2.3 2.3 0 0 0-4.54-.68l-2.38.22s-.19-9.55-5.68-7.79c0 0-4 2.45-6.34.95s-2.2-2-2.2-2-1.15 2.51-4.2.86-3.47-4.59-2.4-6c.61-.82 1.2-1.72 2.2-1.9a3 3 0 0 1 2.74 1 2.61 2.61 0 0 1 .89-3.47 4.28 4.28 0 0 1 3.84-.18 12.47 12.47 0 0 1 3.3 2.21 4.86 4.86 0 0 1 9.38.77 4.22 4.22 0 0 1 5-1 5.88 5.88 0 0 1 3.06 4.33 9.751 9.751 0 0 1-.76 5.37 3.14 3.14 0 0 1 3.92 1 4.26 4.26 0 0 1 .24 4.22 6.84 6.84 0 0 1-3.13 3 2.69 2.69 0 0 1-2.55 4.65" class="cls-53" data-name="Trazado 1938"/>
                        <path id="Trazado_1939" d="M643.21 314.42s14.94 4.72 35.39 0c0 0 3.93-.78 2.36 4.72l-5.51 20.45s.79.78-2.36 2.36h-22.8s-3.94.78-3.94-3.15l-5.5-22s-.79-2.38 2.36-2.38z" class="cls-54" data-name="Trazado 1939"/>
                        <path id="Trazado_1940" d="M639.28 314.42s-13.37-1.57-18.09-16.51c0 0-2.36-11.8 10.22-13.37 0 0 6.29 0 9.44 7.07 0 0 6.29 3.15 4.72-5.5 0 0-1.58-4.72-10.23-8.65 0 0-7.08-6.29-1.57-12.59 0 0 2.36-5.5 11-2.35 0 0 2.36 3.93 4.72 4.71 0 0 3.14 1.58 2.36-4.71 0 0-1.57-12.59 2.36-18.09 0 0 3.93-6.29 10.22-3.15a9.3 9.3 0 0 1 3.93 10.23s-3.14 7.86-1.57 11.79c0 0 2.36 3.15 6.29-3.14 0 0 4.72-7.87 11.8-3.94 0 0 6.29 3.15 3.15 11.8 0 0 0 7.08-9.44 11s-11.41 3.54-11.41 8.26c0 0 3.15 6.29 14.16-1.57 0 0 11.8-6.3 15.73.78 0 0 5.5 4.72.79 14.16 0 0-10.56 15-25.73 15 .01-.01-24.6 2.35-32.85-1.23z" class="cls-55" data-name="Trazado 1940"/>
                        <rect id="Rectángulo_1277" width="12.52" height="5.31" class="cls-56" data-name="Rectángulo 1277" rx="2.655" transform="translate(1712.94 261.56)"/>
                        <path id="Trazado_1941" d="M1712.99 273.37l.75 10.39h9.93l1.06-9.29z" class="cls-57" data-name="Trazado 1941"/>
                        <path id="Trazado_1942" d="M1712.32 264.21l.9 12.41 11.3.43 1.57-12.84z" class="cls-58" data-name="Trazado 1942"/>
                        <g id="Grupo_2419" class="cls-59" data-name="Grupo 2419">
                            <path id="Trazado_1943" d="M1909.5 156c-.89 2-.5 4.24-.24 6.39s.3 4.54-1.1 6.19-3.72 2-5.43 3.3a6.37 6.37 0 0 0-2.51 5.44c.1 1.44.64 3-.24 4.19a3.849 3.849 0 0 1-1.89 1.13 36.275 36.275 0 0 0-4.54 1.67 7.5 7.5 0 0 0-3.49 3.23c-1 2-.58 4.48 0 6.68s1.29 4.53 3.15 5.8a8.859 8.859 0 0 0 4.84 1.18 40.72 40.72 0 0 0 14.52-2.22 17 17 0 0 0 7.8-4.82c3.1-3.76 3.28-9.08 2.88-13.93-.23-2.72-.63-5.55-2.24-7.77a10.51 10.51 0 0 0-6.84-3.92c-2.66-.45-2-13.11-4.64-12.54" class="cls-60" data-name="Trazado 1943"/>
                            <path id="Trazado_1944" d="M1866.21 282.76l-10.07 50.76h4.67l15.68-45.26z" class="cls-50" data-name="Trazado 1944"/>
                            <path id="Trazado_1945" d="M1855.33 273.52c13.24 14.45 33.63 21.43 53.18 20s38.06-10.82 52.22-24.37 24.13-31.07 30.51-49.59c2.18-6.32 4-12.9 3.8-19.58s-2.53-13.54-7.53-18c-8.94-7.91-23.06-5.74-33.66-.25a68.83 68.83 0 0 0-32.07 35.6c-3 7.54-4.57 15.58-7.86 23s-8.74 14.43-16.46 16.89c-5.42 1.72-11.29 1-16.9.06s-11.31-2.14-16.94-1.31-18.84 3.34-8.29 17.55" class="cls-38" data-name="Trazado 1945"/>
                            <path id="Trazado_1946" d="M1901 242.8s-58.31-16.42-69.8 2.71-17.46 76.79-17.46 76.79l12.9 4.14s19.11-64.68 26.12-66.84 52.5 5 52.5 5z" class="cls-44" data-name="Trazado 1946"/>
                            <path id="Trazado_1947" d="M1813.77 322.3s-13.44-1-10.86.81 23.24 6.79 23.24 6.79l.56-3.86z" class="cls-42" data-name="Trazado 1947"/>
                            <path id="Trazado_1948" d="M1861.82 245l2.73-10.3c14.61 1.28 29.68 5.85 44.89 11.4z" class="cls-35" data-name="Trazado 1948"/>
                            <path id="Trazado_1949" d="M1911.58 188.68s-10.84-1.65-14.59 17c-5.4 27-36 9.8-36 9.8l-9.93 6.23s16.17 19.34 40.52 10.92 20-43.95 20-43.95z" class="cls-61" data-name="Trazado 1949"/>
                            <path id="Trazado_1950" d="M1938.83 210.87l.36 14.15 1.23 26.47c-9.79 4.58-23.3 3.38-36.86 4.47 4.36-12.67 6.5-25.53 3-38.85 0 0-4.78-3-2.25-6a20.39 20.39 0 0 0 4-7.12l29.37 2.75" class="cls-42" data-name="Trazado 1950"/>
                            <path id="Trazado_1951" d="M1916 188.21c.27-1.53-.3-8-.3-8s-5.87-.67-6.18-6.51.16-19.28.16-19.28l10.76-5.15 10.39 9-.71 29.18z" class="cls-61" data-name="Trazado 1951"/>
                            <path id="Trazado_1952" d="M1915.72 180.23a14.54 14.54 0 0 0 7.75-2.54s-1.78 4.27-7.63 4z" class="cls-44" data-name="Trazado 1952"/>
                            <path id="Trazado_1953" d="M1939.84 251.4s1.36 28.33-22.29 29.13l5.66-32.51z" class="cls-35" data-name="Trazado 1953"/>
                            <path id="Trazado_1954" d="M1913 249.86s-75-12.13-82.47 3.16-.7 79.62-.7 79.62l14.6-1.26s2.57-60.23 6-62.68 64.24 11.91 69.21 11.21c5.59-.77 24.91-22.73-6.64-30.05z" class="cls-61" data-name="Trazado 1954"/>
                            <path id="Trazado_1955" d="M1831.11 331.53s-13.1 3.15-10.09 4.08 23.21-.56 23.21-.56l.48-5.44z" class="cls-42" data-name="Trazado 1955"/>
                            <path id="Trazado_1956" d="M1861.71 216l-2.1-1.8a23.682 23.682 0 0 1-3.61-2.95 6.6 6.6 0 0 1-1.36-1.87 10.153 10.153 0 0 1-1-2.69.9.9 0 0 0-1.63-.47c-.39.7-.15 3.14 1.35 5.57s-2.75 1-4.3.44-6.45-1.86-7-1.51c-.78.52-.37 1.46 1.19 1.93s6.17 2.23 5.86 3-8.19-1.91-8.19-1.91-1.6-.85-2 .07c-.7 1.67 7.9 3.92 8.73 4.12.57.13.27 1-.34.85s-7.81-2.88-8.54-1.2c-.56 1.3 7.06 1.93 8.24 3.32s-5.73-1.07-6.21.19c-.19.47-.25.85 3.92 1.68s16.21 1.29 16.21 1.29l.7-8.24" class="cls-61" data-name="Trazado 1956"/>
                            <path id="Trazado_1957" d="M1908.23 205.51l1.47-16.75 4.54-1 14.13-.75s8.62-.64 11.6 2-.1 21.66-.1 21.66z" class="cls-42" data-name="Trazado 1957"/>
                            <path id="Trazado_1958" d="M1933.31 187s18.1-3.81 16.39 26.72c-1.74 31.09-48.88 35.8-48.88 35.8l-.94-11.66s33.89-9.17 36.44-22.1-3.01-28.76-3.01-28.76z" class="cls-61" data-name="Trazado 1958"/>
                            <path id="Trazado_1959" d="M1862.63 246.72l-17.85-38.3 2.31-1.31 18.14 37.14 31.99-2.53.31 2.16z" class="cls-52" data-name="Trazado 1959"/>
                            <path id="Trazado_1960" d="M1908.07 157.52s-.88-9.34 12-10.84 13 14.06 13 14.06l-7-1.42-1.53-4-.27 3.83-5.24-.45.35-2.81-1.53 2.2z" class="cls-60" data-name="Trazado 1960"/>
                            <path id="Trazado_1961" d="M1901 237.9s-5.23.1-8-3.67-3.85.16-.76 3.67 4.59 4.29 4.59 4.29-17.23 4.35-13.63 4.57 20.11 2 20.11 2z" class="cls-61" data-name="Trazado 1961"/>
                            <path id="Trazado_1962" d="M1861 272.14l-2.55-26.85S1922 243 1930.62 251s3.86 31-13.07 29.51-56.55-8.37-56.55-8.37z" class="cls-62" data-name="Trazado 1962"/>
                            <path id="Trazado_1963" d="M1866.21 282.76l-1.66 6.21 10.06 4.72 1.88-5.43z" class="cls-63" data-name="Trazado 1963"/>
                            <path id="Trazado_1964" d="M1963.31 179.15a2.806 2.806 0 0 1 .53-.17 11.9 11.9 0 0 1 1.61-.39 20.682 20.682 0 0 1 6.34-.27 23.937 23.937 0 0 1 4.51.92 23.353 23.353 0 0 1 5 2.27 19.42 19.42 0 0 1 4.79 4.11 20 20 0 0 1 3.5 6.16 29 29 0 0 1 .62 16.05c-1.26 5.72-4 11.39-7 17.13s-6.36 11.72-10.13 17.73a145.309 145.309 0 0 1-12.93 17.73 97.307 97.307 0 0 1-16.06 15 73 73 0 0 1-18 9.74c-1.52.59-3.09 1-4.61 1.48-.75.26-1.53.4-2.29.59l-2.28.54c-1.53.26-3 .56-4.51.76l-2.22.26c-.74.09-1.47.17-2.19.2a80.585 80.585 0 0 1-16.12-.48 89 89 0 0 1-13-2.67 95.36 95.36 0 0 1-9.53-3.17 61.374 61.374 0 0 1-5.82-2.51l-1.48-.71a3.261 3.261 0 0 1-.49-.27 2.639 2.639 0 0 1 .53.18l1.52.64c1.32.59 3.3 1.37 5.87 2.34a98.709 98.709 0 0 0 9.53 3 91.551 91.551 0 0 0 13 2.53 80.449 80.449 0 0 0 16 .36 15.793 15.793 0 0 0 2.16-.21l2.2-.26c1.47-.21 3-.52 4.46-.77l2.24-.55c.75-.2 1.53-.33 2.27-.59 1.5-.48 3-.89 4.55-1.48a72.89 72.89 0 0 0 17.75-9.67 96.759 96.759 0 0 0 15.9-14.85 145.938 145.938 0 0 0 12.86-17.61c3.76-6 7.08-11.93 10.15-17.65s5.73-11.31 7-16.91A28.47 28.47 0 0 0 1989 192a19.87 19.87 0 0 0-3.34-6 19.09 19.09 0 0 0-4.62-4 23.318 23.318 0 0 0-4.86-2.29 24.213 24.213 0 0 0-4.42-1 21.78 21.78 0 0 0-6.27.1 16.382 16.382 0 0 0-1.62.3 2.09 2.09 0 0 1-.56.04z" class="cls-64" data-name="Trazado 1964"/>
                        </g>
                        <g id="Grupo_2421" class="cls-65" data-name="Grupo 2421">
                            <path id="Trazado_1965" d="M95.68 301.91a21.42 21.42 0 0 0-20.84 20.4l-3.49 73.89 88.85 2.43-3.13-95z" class="cls-66" data-name="Trazado 1965"/>
                            <g id="Grupo_2420" class="cls-67" data-name="Grupo 2420">
                                <path id="Trazado_1966" d="M89.58 298s46.24-5.62 51.87 4.43S143.86 403 143.86 403h-23.32l-3.36-81.62-5.58.14a21.54 21.54 0 0 1-22.06-22.79z" class="cls-7" data-name="Trazado 1966"/>
                                <path id="Trazado_1967" d="M125.09 293.55s46.24-5.63 51.91 4.45 2.41 100.52 2.41 100.52h-23.36l-3.36-81.62-5.58.14a21.55 21.55 0 0 1-22.06-22.79z" class="cls-7" data-name="Trazado 1967"/>
                            </g>
                            <path id="Trazado_1969" d="M209.63 246.24l-76.877-63.552L94.73 215.21l4.69 61.38 56.45 11.71 13.51-34.65z" class="cls-68" data-name="Trazado 1969"/>
                            <path id="Trazado_1970" d="M133.34 293.48s46.24-5.63 51.87 4.42 2.41 100.53 2.41 100.53H164.3l-3.37-81.63-31.21.81z" class="cls-69" data-name="Trazado 1970"/>
                            <path id="Trazado_1971" d="M147.7 315.2a6.671 6.671 0 0 0 1-.08l2.82-.36 4.48-.6 2.79-.38a9.189 9.189 0 0 1 3.05-.16 1.82 1.82 0 0 1 1.18.89 4.26 4.26 0 0 1 .45 1.6c.1 1.2.21 2.45.32 3.75.21 2.59.44 5.36.67 8.28.46 5.83.93 12.25 1.38 19 .9 13.48 1.52 25.7 1.93 34.54.2 4.41.36 8 .47 10.48.06 1.22.11 2.17.14 2.84a5.371 5.371 0 0 0 .1 1 6.263 6.263 0 0 0 0-1v-2.85c0-2.48-.13-6.06-.27-10.49-.3-8.85-.84-21.07-1.75-34.56-.44-6.74-.93-13.16-1.42-19-.26-2.92-.51-5.69-.73-8.28-.13-1.3-.23-2.54-.36-3.76a4.7 4.7 0 0 0-.53-1.78 2.28 2.28 0 0 0-1.48-1.08 4.76 4.76 0 0 0-1.68 0c-.54.07-1 .15-1.53.23l-2.78.43-4.46.7-2.81.48a6.07 6.07 0 0 0-.98.16z" class="cls-70" data-name="Trazado 1971"/>
                            <path id="Trazado_1972" d="M155.87 294.79l-.51 22.57h-7.05L139 295.49s13.94-1.97 16.87-.7z" class="cls-7" data-name="Trazado 1972"/>
                            <path id="Trazado_1973" d="M109.38 193.1c-2.86 4.23-8.49 5.3-13.44 6.53s-10.54 3.81-11.46 8.83c-.57 3.17 1 6.44.29 9.59-1.36 6.49-10.16 7.77-14.7 12.6-3.27 3.48-4.06 8.87-2.55 13.4a19.75 19.75 0 0 0 9.17 10.57c8.56 4.88 19.67 4.27 28.26-.54s14.73-13.41 17.64-22.82 2.79-19.57.9-29.23c-.7-3.59-1.83-7.42-4.76-9.61s-8.12-1.45-9.08 2.08" class="cls-27" data-name="Trazado 1973"/>
                            <path id="Trazado_1974" d="M95.49 284.19s-.25.56-.59 1.44c-.89 2.28-2.45 6.72-2.25 9.46l13-2.69" class="cls-71" data-name="Trazado 1974"/>
                            <path id="Trazado_1975" d="M188.05 284.35l2.69-1.8a27.811 27.811 0 0 0 4.56-2.94 8 8 0 0 0 1.83-2 12.379 12.379 0 0 0 1.55-3 1 1 0 0 1 1.94-.33c.36.87-.24 3.65-2.31 6.26s3.05 1.48 4.92 1.1 7.71-1.29 8.28-.81c.84.71.24 1.74-1.64 2.07s-7.43 1.75-7.18 2.73 9.74-1.11 9.74-1.11 2-.77 2.28.35c.59 2-9.67 3.48-10.64 3.59-.68.08-.45 1.15.27 1s9.43-2.29 10-.23c.48 1.57-8.42 1.27-10 2.72s6.77-.46 7.16 1.06c.14.57.17 1-4.76 1.42s-18.94-.69-18.94-.69l.3-9.63" class="cls-20" data-name="Trazado 1975"/>
                            <path id="Trazado_1976" d="M152.43 236.84s5.8 39.77 8 40.61c15.57 5.74 34.63 3.55 34.63 3.55l1 13.4s-50.24 5.38-54.81-14.06a330.662 330.662 0 0 1-7.11-43.64z" class="cls-20" data-name="Trazado 1976"/>
                            <path id="Trazado_1977" d="M92.72 293.48s46.24-5.63 51.86 4.42S147 398.43 147 398.43h-23.32l-3.37-81.63-5.57.15a21.54 21.54 0 0 1-22.06-22.79z" class="cls-72" data-name="Trazado 1977"/>
                            <path id="Trazado_1978" d="M209.63 246.24l-12.44 46.16h-71.98v-3.06l28.88-1.54 9.23-43.92z" class="cls-73" data-name="Trazado 1978"/>
                            <path id="Trazado_1979" d="M88.94 238.83s4.8-23.69 21.55-21.85 26.31 2.53 26.31 2.53 16.57-1.82 18.57 16.36a18.069 18.069 0 0 1 0 3.29l-.55 7.22-14.09-1.18s-1.18 23.72.85 30.18c2.29 7.3 5.74 16.84 5.74 16.84l-45.26-.49 4.54-49.15-17.7-3.75" class="cls-71" data-name="Trazado 1979"/>
                            <path id="Trazado_1980" d="M134.63 219.84c-.32-1.56.08-7.3.08-7.3s6-.85 6.17-6.85-.69-19.77-.69-19.77l-11.17-5-9.82 9.85 1.79 28z" class="cls-20" data-name="Trazado 1980"/>
                            <path id="Trazado_1981" d="M125.39 191.15a1.26 1.26 0 0 0-.3.15 4 4 0 0 0-.79.56 5.27 5.27 0 0 0-1.52 5.55 5.35 5.35 0 0 0 1.54 2.38 5.28 5.28 0 0 0 1.29.86 5.141 5.141 0 0 0 1.55.46 5.39 5.39 0 0 0 5.62-3.05 5.09 5.09 0 0 0 .45-1.55 4.74 4.74 0 0 0 0-1.55 5.324 5.324 0 0 0-6.64-4.34 4.23 4.23 0 0 0-.9.36 1.23 1.23 0 0 0-.29.17 6.537 6.537 0 0 1 1.22-.41 5.27 5.27 0 0 1 3.39.34 5.12 5.12 0 0 1 2.94 5.39 4.9 4.9 0 0 1-.44 1.46 5.17 5.17 0 0 1-2.18 2.31 5.09 5.09 0 0 1-3.11.56 4.8 4.8 0 0 1-1.47-.42 4.92 4.92 0 0 1-1.23-.8 5.159 5.159 0 0 1-.13-7.63c.61-.57 1.02-.77 1-.8z" class="cls-27" data-name="Trazado 1981"/>
                            <path id="Trazado_1982" d="M140.22 190.08a1.441 1.441 0 0 0-.34 0 3.821 3.821 0 0 0-.95.15 5.31 5.31 0 0 0-3.52 7.11 5.17 5.17 0 0 0 .77 1.34 5 5 0 0 0 1.18 1.1 5.33 5.33 0 0 0 6.38-.22 5.16 5.16 0 0 0 1.11-1.18 5.27 5.27 0 0 0 .68-1.39 5.42 5.42 0 0 0 .12-2.84 5.35 5.35 0 0 0-1.1-2.21 5.23 5.23 0 0 0-3-1.8 3.619 3.619 0 0 0-1-.08 1.23 1.23 0 0 0-.34 0 6.434 6.434 0 0 1 1.27.18 5.2 5.2 0 0 1 3.76 6.69 4.579 4.579 0 0 1-.65 1.31 4.42 4.42 0 0 1-1 1.11 5 5 0 0 1-6 .21 4.68 4.68 0 0 1-1.13-1 5 5 0 0 1-.74-1.26 5.17 5.17 0 0 1 3.29-6.88 6.893 6.893 0 0 1 1.21-.34z" class="cls-27" data-name="Trazado 1982"/>
                            <path id="Trazado_1983" d="M135.3 195.93c0-.09-.51-.14-1.14-.12s-1.13.11-1.13.2a2.25 2.25 0 0 0 1.14.11 2.29 2.29 0 0 0 1.13-.19z" class="cls-27" data-name="Trazado 1983"/>
                            <path id="Trazado_1984" d="M122.88 196.36a11.878 11.878 0 0 0-2.72-.06 11.561 11.561 0 0 0-2.7.25 12.6 12.6 0 0 0 2.72.06 11.561 11.561 0 0 0 2.7-.25z" class="cls-27" data-name="Trazado 1984"/>
                            <path id="Trazado_1985" d="M118.33 195.09s9.83-1.28 11.27-10.29l11.05 9.51a11.57 11.57 0 0 0-3.13-12.7c-6.14-6-10.17-4.54-12.5-4.45-2.17.07-13 2.78-15.88 15.37a26.79 26.79 0 0 0-.48 2.89z" class="cls-27" data-name="Trazado 1985"/>
                            <path id="Trazado_1986" d="M134.71 212.54a15 15 0 0 1-8-2.4s1.95 4.32 7.94 3.87z" class="cls-26" data-name="Trazado 1986"/>
                            <path id="Trazado_1987" d="M139.25 244.28c-.19 1.59 1 3 2.13 4.08s2.5 2.17 2.89 3.72a5.06 5.06 0 0 1-.39 3.13 8.47 8.47 0 0 1-6.25 4.94" class="cls-71" data-name="Trazado 1987"/>
                            <path id="Trazado_1988" d="M137.63 291l2.93-40.2c-2.2 0-30.58-2.74-30.58-2.74l-5.77 44.18z" class="cls-74" data-name="Trazado 1988"/>
                            <path id="Trazado_1989" d="M133 264.65s-.61 12-1.94 11.94c-5.33 0-18.87-2.32-19.43-3.15s1.37-11.38 1.37-11.38z" class="cls-75" data-name="Trazado 1989"/>
                            <path id="Trazado_1990" d="M135.12 264.94a4.131 4.131 0 0 0 .18-.68c.11-.48.27-1.21.47-2.17v-.14h-.14c-4.31-.71-13.46-2.09-24-3.6l-.36-.05v4.07h.27c6.73.81 12.68 1.48 16.92 1.93l5 .52a11 11 0 0 0 1.75.12 18.275 18.275 0 0 0-1.87-.31l-5-.7c-4.23-.58-10.07-1.36-16.67-2.18l.27.31v-3.43l-.35.3c10.59 1.51 19.76 2.74 24.09 3.26l-.12-.16c-.14.91-.23 1.62-.29 2.12a4 4 0 0 0-.15.79z" class="cls-75" data-name="Trazado 1990"/>
                            <path id="Trazado_1991" d="M93.23 293.86a1.64 1.64 0 0 0 0 .33 2.9 2.9 0 0 0 .13.94 17.41 17.41 0 0 0 1 3.54 19.81 19.81 0 0 0 2.91 5 18.87 18.87 0 0 0 5.9 5 19.86 19.86 0 0 0 9 2.39 20.4 20.4 0 0 0 2.58-.11l2.62-.34a16.818 16.818 0 0 1 2.66-.14 6.12 6.12 0 0 1 2.57.59 4.23 4.23 0 0 1 1.87 1.85 8.871 8.871 0 0 1 .82 2.69c.27 1.93.46 3.94.66 6 .4 4.07.66 8.29.84 12.63.37 8.67.36 16.94.38 24.46s.05 14.29.07 20 .07 10.28.1 13.48c0 1.58 0 2.81.05 3.66v1a1.68 1.68 0 0 0 0 .33 1.39 1.39 0 0 0 0-.33v-1c0-.85 0-2.08.06-3.66 0-3.2.06-7.8.1-13.48s0-12.47.06-20 0-15.8-.33-24.49c-.18-4.34-.45-8.58-.85-12.66-.2-2-.4-4-.69-6a9.16 9.16 0 0 0-.88-2.88 4.86 4.86 0 0 0-2.13-2.08 6.58 6.58 0 0 0-2.81-.64 17.748 17.748 0 0 0-2.75.16l-2.61.35a19.6 19.6 0 0 1-11.33-2.14 18.69 18.69 0 0 1-5.84-4.78 19.839 19.839 0 0 1-3-4.91 19.579 19.579 0 0 1-1.11-3.47 4.08 4.08 0 0 0-.05-1.29z" class="cls-75" data-name="Trazado 1991"/>
                            <path id="Trazado_1992" d="M132.18 302.19c0 .18 3 .2 6.78.06s6.77-.39 6.76-.56-3-.2-6.78-.06-6.76.37-6.76.56z" class="cls-75" data-name="Trazado 1992"/>
                            <path id="Trazado_1993" d="M120.29 317c.13.11.76-.38 1.41-1.11s1.07-1.4 1-1.52-.76.38-1.42 1.11-1.12 1.43-.99 1.52z" class="cls-75" data-name="Trazado 1993"/>
                            <path id="Trazado_1994" d="M120.12 317.29c.17 0 .36-1 .43-2.35s0-2.39-.19-2.39-.37 1-.43 2.35a5.637 5.637 0 0 0 .19 2.39z" class="cls-75" data-name="Trazado 1994"/>
                            <path id="Trazado_1995" d="M99.41 293.32a3.55 3.55 0 0 0 1 1.52 7.83 7.83 0 0 0 1.57 1.25 8.92 8.92 0 0 0 4.69 1.31 8.061 8.061 0 0 0 2-.26 3.37 3.37 0 0 0 1.66-.78 13.567 13.567 0 0 0-1.75.35 9.85 9.85 0 0 1-6.29-1.11 10 10 0 0 1-1.56-1.08c-.82-.7-1.23-1.26-1.32-1.2z" class="cls-75" data-name="Trazado 1995"/>
                            <path id="Trazado_1996" d="M116.26 250.09a10.84 10.84 0 0 0 2.67.68c1.66.33 4 .69 6.57.95s4.93.35 6.62.36a10.619 10.619 0 0 0 2.75-.16 13.778 13.778 0 0 0-2.73-.28c-1.69-.12-4-.29-6.58-.54s-4.88-.55-6.56-.76a13.52 13.52 0 0 0-2.74-.25z" class="cls-75" data-name="Trazado 1996"/>
                            <path id="Trazado_1997" d="M117.46 217.73l-1.27 34.48h-4.06v-35.33z" class="cls-75" data-name="Trazado 1997"/>
                            <path id="Trazado_1998" d="M113 250.07a1 1 0 1 0 1-1 1 1 0 0 0-1 1z" class="cls-74" data-name="Trazado 1998"/>
                            <path id="Trazado_1999" d="M142.61 219.65l-3.97 34.28-4.05-.32 2.77-35.22z" class="cls-75" data-name="Trazado 1999"/>
                            <path id="Trazado_2000" d="M135.91 251.8a1 1 0 1 0 1-1 1 1 0 0 0-1 1z" class="cls-74" data-name="Trazado 2000"/>
                            <path id="Trazado_2001" d="M145.76 280.94s-28.5 4.91-32.84-10.56-6.66-27.93-6.66-27.93.51 39.09 5.46 42.09 36.22-.16 35.39-3.51" class="cls-7" data-name="Trazado 2001"/>
                            <path id="Trazado_2002" d="M88.94 238.83l17.7 3.75s.13 33.84 7 37c13.61 6.32 31.17 2.35 34.25 1.57.52-.39 1.1-.85 1.72-1.39a7.84 7.84 0 0 0 1.71-2.09 12.32 12.32 0 0 0 1.36-3.06 1 1 0 0 1 1.92-.44c.41.84 0 3.65-1.92 6.38s3.13 1.29 5 .8 7.62-1.76 8.22-1.31c.88.66.34 1.72-1.51 2.17s-7.31 2.19-7 3.15 9.66-1.69 9.66-1.69 1.91-.89 2.3.21c.71 2-9.44 4.06-10.41 4.23-.68.12-.38 1.18.34 1s9.26-2.85 10-.84c.57 1.54-8.33 1.78-9.79 3.32s6.73-.87 7.21.63c.18.56.24 1-4.66 1.7a113.922 113.922 0 0 1-12.36.5c-5.45.77-48.26 6.26-55-10.8-7.57-19.11-5.74-44.79-5.74-44.79z" class="cls-20" data-name="Trazado 2002"/>
                            <path id="Trazado_2003" d="M114.79 198.74s-6.37-4.35-5.89-5l-1.53 1.53 5.63 5.29z" class="cls-76" data-name="Trazado 2003"/>
                            <path id="Trazado_2004" d="M179 267.57c-.42 2 .44 3.81 1.93 4.13s3-1 3.45-3-.44-3.81-1.93-4.13-3.01 1.03-3.45 3z" class="cls-66" data-name="Trazado 2004"/>
                        </g>
                        <path id="Trazado_2005" d="M1844.5 211.17l85.64-96.58 48.09 64.02-.64 32.56-44.95 29.85-67.41 3.23z" class="cls-77" data-name="Trazado 2005"/>
                    </g>
                </g>
            </g>
        </g>
    </g>
</svg>
